<svg width="192" height="192" viewBox="0 0 192 192" fill="none" xmlns="http://www.w3.org/2000/svg">
<g opacity="0.1">
<path d="M108.6 108.6C105.6 112.2 100.8 114 96 114C91.2 114 86.4 112.2 83.4 108.6C76.2 101.4 76.2 90 83.4 83.4L100.2 66.6C99 66 97.2 66 96 66C79.2 66 66 79.2 66 96C66 112.8 79.2 126 96 126C112.8 126 126 112.8 126 96C126 94.8 126 93 125.4 91.8L108.6 108.6Z" fill="url(#paint0_linear_5751_14405)"/>
<path d="M183.381 35.9495C182.774 33.5222 180.347 32.3086 177.92 32.3086H159.715V14.1044C159.715 11.6772 158.502 9.24992 156.075 8.64311C153.647 7.4295 151.22 8.03631 149.4 9.85673L125.127 34.129C123.914 35.3427 123.307 36.5563 123.307 38.3767V60.2218L88.7189 94.8099C86.2916 97.2371 86.2916 100.878 88.7189 103.305C89.9325 104.519 91.7529 105.126 92.9665 105.126C94.1801 105.126 96.0006 104.519 97.2142 103.305L131.802 68.7171H153.647C155.468 68.7171 156.681 68.1103 157.895 66.8967L182.167 42.6244C183.988 40.8039 184.595 38.3767 183.381 35.9495Z" fill="url(#paint1_linear_5751_14405)"/>
<path d="M166.389 75.395C163.355 79.0359 158.5 80.8563 153.646 80.8563H136.655L132.407 85.104C134.228 89.3516 134.835 94.2061 134.835 99.0605C134.835 122.726 116.024 141.537 92.358 141.537C68.6925 141.537 49.8815 122.726 49.8815 99.0605C49.8815 75.395 68.6925 56.584 92.358 56.584C97.2125 56.584 102.067 57.7976 106.315 59.0112L111.169 55.3704V38.3797C111.169 33.5253 112.99 28.6708 116.63 25.6368L122.698 19.5687C112.99 15.9278 103.281 14.1074 92.9648 14.1074C46.2406 14.1074 8.01172 52.3363 8.01172 99.0605C8.01172 145.785 46.2406 184.014 92.9648 184.014C139.689 184.014 177.918 145.785 177.918 99.0605C177.918 88.7448 176.098 79.0359 172.457 69.327L166.389 75.395Z" fill="url(#paint2_linear_5751_14405)"/>
</g>
<defs>
<linearGradient id="paint0_linear_5751_14405" x1="96" y1="66" x2="96" y2="126" gradientUnits="userSpaceOnUse">
<stop stop-color="#92BEC0"/>
<stop offset="1" stop-color="#79A2A4"/>
</linearGradient>
<linearGradient id="paint1_linear_5751_14405" x1="135.455" y1="8.01172" x2="135.455" y2="105.126" gradientUnits="userSpaceOnUse">
<stop stop-color="#92BEC0"/>
<stop offset="1" stop-color="#79A2A4"/>
</linearGradient>
<linearGradient id="paint2_linear_5751_14405" x1="92.9648" y1="14.1074" x2="92.9648" y2="184.014" gradientUnits="userSpaceOnUse">
<stop stop-color="#92BEC0"/>
<stop offset="1" stop-color="#79A2A4"/>
</linearGradient>
</defs>
</svg>
