<svg width="192" height="192" viewBox="0 0 192 192" fill="none" xmlns="http://www.w3.org/2000/svg">
<g opacity="0.1">
<path fill-rule="evenodd" clip-rule="evenodd" d="M88.3352 10.0566C67.4789 22.2271 41.0786 30.5608 21.1552 33.3416C13.9215 34.3536 7.99902 40.2937 8.00782 47.5978L8.02542 51.9715C7.76142 105.151 12.2231 151.694 91.292 183.119C94.2952 184.301 97.6346 184.301 100.638 183.119C179.76 151.694 184.265 105.159 183.984 51.9715V47.5626C183.984 40.2761 178.061 34.2744 170.863 33.148C151.951 30.1824 124.38 21.9367 103.542 10.0214C101.225 8.69471 98.5995 7.99972 95.9294 8.0059C93.2592 8.01208 90.6463 8.7192 88.3352 10.0566ZM128.613 84.6639C130.265 83.0138 131.193 80.7753 131.194 78.4409C131.194 76.1065 130.268 73.8674 128.618 72.2161C126.968 70.5649 124.729 69.6367 122.395 69.6359C120.06 69.6351 117.821 70.5616 116.17 72.2117L87.1912 101.199L75.8127 89.8207C75.0009 88.9802 74.0298 88.3098 72.9562 87.8486C71.8825 87.3874 70.7278 87.1446 69.5593 87.1345C68.3908 87.1243 67.232 87.347 66.1505 87.7895C65.069 88.2319 64.0865 88.8854 63.2602 89.7116C62.434 90.5379 61.7805 91.5205 61.338 92.602C60.8956 93.6835 60.6729 94.8423 60.6831 96.0107C60.6932 97.1792 60.936 98.3339 61.3972 99.4076C61.8584 100.481 62.5288 101.452 63.3693 102.264L80.9695 119.873C82.6198 121.523 84.8577 122.45 87.1912 122.45C89.5247 122.45 91.7626 121.523 93.4129 119.873L128.613 84.6639Z" fill="url(#paint0_linear_5751_14428)"/>
</g>
<defs>
<linearGradient id="paint0_linear_5751_14428" x1="96.0012" y1="8.00586" x2="96.0012" y2="184.006" gradientUnits="userSpaceOnUse">
<stop stop-color="#92BEC0"/>
<stop offset="1" stop-color="#79A2A4"/>
</linearGradient>
</defs>
</svg>
