<svg width="192" height="192" viewBox="0 0 192 192" fill="none" xmlns="http://www.w3.org/2000/svg">
<g opacity="0.1">
<path d="M3 70.9633C3 105.77 40.5147 142.583 67.9761 164.867C80.4078 174.955 86.6238 180 96.3333 180C106.043 180 112.259 174.956 124.691 164.868C152.152 142.583 189.667 105.77 189.667 70.9631C189.667 12.8165 138.331 -8.89268 96.3333 36.0251C54.3348 -8.89268 3 12.8165 3 70.9633Z" fill="url(#paint0_linear_5751_14417)"/>
<path fill-rule="evenodd" clip-rule="evenodd" d="M131.035 40.3438C134.659 40.3438 137.598 43.2819 137.598 46.9062V57.8439H148.535C152.159 57.8439 155.098 60.782 155.098 64.4064C155.098 68.0308 152.159 70.9689 148.535 70.9689H137.598V81.9062C137.598 85.5305 134.659 88.4688 131.035 88.4688C127.411 88.4688 124.473 85.5305 124.473 81.9062V70.9689H113.535C109.911 70.9689 106.973 68.0308 106.973 64.4064C106.973 60.782 109.911 57.8439 113.535 57.8439H124.473V46.9062C124.473 43.2819 127.411 40.3438 131.035 40.3438Z" fill="#F0F3F2"/>
</g>
<defs>
<linearGradient id="paint0_linear_5751_14417" x1="96.3333" y1="12" x2="96.3333" y2="180" gradientUnits="userSpaceOnUse">
<stop stop-color="#92BEC0"/>
<stop offset="1" stop-color="#79A2A4"/>
</linearGradient>
</defs>
</svg>
